<?xml version="1.0" standalone="no"?>
<!DOCTYPE svg PUBLIC "-//W3C//DTD SVG 20010904//EN"
 "http://www.w3.org/TR/2001/REC-SVG-20010904/DTD/svg10.dtd">
<svg version="1.0" xmlns="http://www.w3.org/2000/svg"
 width="840.000000pt" height="680.000000pt" viewBox="0 0 840.000000 680.000000"
 preserveAspectRatio="xMidYMid meet">

<g transform="translate(0.000000,680.000000) scale(0.100000,-0.100000)"
fill="#000000" stroke="none">
<path d="M1174 6389 c-46 -16 -47 -25 -52 -322 l-4 -282 46 -365 c26 -201 58
-446 71 -545 14 -99 45 -340 70 -535 81 -646 135 -1061 175 -1365 56 -430 123
-945 175 -1355 24 -195 55 -430 68 -521 l23 -165 145 -225 c79 -123 150 -236
156 -251 7 -15 24 -35 39 -44 25 -17 37 -17 243 -1 119 9 416 33 661 52 245
19 546 44 670 55 124 11 371 31 550 45 179 14 568 46 865 70 297 25 630 52
740 60 290 22 508 40 978 80 231 19 425 35 433 35 8 0 23 9 34 20 38 38 37 45
-121 795 -28 132 -77 366 -110 520 -32 154 -88 420 -124 590 -36 171 -88 418
-116 550 -27 132 -75 355 -104 495 -30 140 -73 343 -95 450 -23 107 -68 323
-101 480 -104 495 -176 836 -234 1114 -31 148 -63 282 -71 297 -30 59 -35 59
-809 89 -143 6 -309 12 -370 15 -140 7 -1106 50 -1545 70 -184 8 -382 17 -440
20 -58 2 -166 7 -240 10 -374 15 -1480 64 -1541 68 -25 2 -54 0 -65 -4z m2104
-718 c1 -1 2 -7 2 -15 0 -11 9 -13 35 -10 27 3 37 0 46 -17 9 -17 8 -23 -2
-30 -7 -4 -18 -4 -24 0 -5 4 -26 8 -46 9 -19 2 -51 7 -70 12 -50 15 -99 13
-99 -4 0 -22 -24 -36 -85 -47 -50 -9 -59 -8 -77 8 -12 10 -27 32 -34 50 -8 17
-19 35 -26 40 -21 13 94 19 242 12 74 -4 136 -7 138 -8z m483 -11 c25 0 29 -4
29 -29 0 -39 10 -44 53 -26 32 13 47 12 47 -6 0 -4 -12 -9 -27 -11 -35 -4 -39
-42 -6 -63 22 -15 26 -14 53 5 36 26 77 74 85 101 l7 22 322 -6 c502 -11 1560
-47 1567 -55 7 -8 72 -320 125 -600 18 -96 46 -237 63 -315 72 -340 161 -758
176 -827 9 -41 38 -178 65 -305 26 -126 60 -285 76 -352 15 -68 26 -125 23
-128 -6 -5 -108 -12 -333 -21 -163 -6 -190 -10 -181 -25 3 -4 -11 -12 -32 -18
-41 -10 -1280 -52 -2288 -76 -341 -8 -662 -16 -713 -18 -71 -2 -91 0 -88 10 3
7 0 16 -7 20 -7 4 -157 6 -333 5 l-321 -3 -18 98 c-23 127 -43 275 -38 288 4
10 131 74 193 96 19 7 49 21 65 31 17 10 38 18 48 18 10 0 17 8 17 20 0 11 -7
20 -15 20 -9 0 -15 9 -15 25 0 23 4 25 46 25 36 0 47 -4 51 -18 3 -14 12 -17
39 -14 22 3 32 8 27 16 -3 6 -3 8 1 4 5 -4 25 3 45 16 39 24 103 54 191 89 55
22 55 22 57 67 l2 45 -11 -37 c-12 -45 -35 -50 -45 -10 l-7 27 -6 -29 c-8 -45
-24 -37 -30 14 -3 31 -7 40 -12 28 -4 -10 -17 -18 -28 -18 -16 0 -20 -5 -18
-22 4 -29 -18 -34 -26 -6 -3 13 -6 44 -6 71 0 45 1 47 29 47 16 0 37 -7 45
-16 15 -14 16 -14 16 0 0 28 29 17 47 -16 l17 -33 9 33 c19 64 57 29 57 -53 0
-18 4 -21 25 -17 15 2 25 0 25 -7 0 -7 5 -9 11 -6 5 4 9 17 8 28 0 12 -1 37 0
55 1 46 31 43 52 -5 l16 -37 7 37 c5 28 12 37 26 37 14 0 20 -7 20 -22 0 -20
1 -20 19 -4 13 11 21 14 26 7 4 -8 10 -7 20 2 7 7 64 35 126 62 102 44 179 82
179 90 0 1 -11 27 -24 56 l-24 54 -8 -55 c-7 -45 -13 -56 -30 -58 -17 -2 -26
9 -51 70 -45 107 -47 118 -28 118 10 0 27 -23 44 -61 l28 -62 12 62 c8 39 17
61 26 61 7 0 26 -28 43 -62 l29 -63 7 63 c7 52 11 62 27 62 22 0 24 -21 9
-101 -7 -35 -7 -56 0 -63 7 -7 10 -6 10 3 0 7 4 10 9 7 4 -3 8 29 7 72 -1 64
2 77 16 80 13 3 18 -13 30 -90 7 -51 15 -82 16 -68 2 14 8 30 14 37 14 18 0
93 -18 93 -8 0 -14 7 -14 15 0 8 5 15 10 15 6 0 10 7 10 15 0 8 9 15 19 15 10
0 21 -7 25 -15 3 -8 15 -15 26 -15 11 0 20 -7 20 -15 0 -9 -9 -15 -24 -15 -22
0 -23 -2 -13 -24 10 -22 45 -42 54 -32 2 2 -1 32 -7 67 -14 89 -13 99 9 99 19
0 31 -25 31 -67 0 -21 2 -22 26 -11 18 9 33 9 54 1 24 -9 38 -6 96 23 105 50
245 114 251 114 2 0 17 8 31 19 15 10 47 26 72 34 25 9 95 41 156 71 61 30
124 58 140 62 36 9 126 68 117 77 -3 4 -14 7 -24 7 -9 0 -45 9 -80 20 -70 21
-147 80 -133 101 4 8 3 10 -4 5 -7 -4 -22 10 -37 33 -37 55 -88 87 -170 107
-38 9 -89 21 -113 27 -24 5 -63 23 -88 40 -43 28 -94 98 -94 129 0 8 -9 23
-21 34 -12 10 -27 31 -35 45 -12 24 -11 30 16 66 16 21 26 44 22 49 -4 6 -40
28 -79 49 -68 35 -73 40 -73 70 0 44 29 67 90 73 28 2 52 7 54 11 6 9 -26 47
-44 53 -8 3 -26 1 -40 -5 -14 -5 -45 -11 -70 -13 -25 -2 -76 -7 -115 -10 -56
-5 -82 -2 -128 15 -32 11 -78 23 -102 27 -24 3 -52 12 -62 20 -17 13 -17 15 5
33 12 11 40 22 62 26 25 4 40 12 40 21 0 19 59 44 103 44 19 0 40 7 47 14 12
16 84 26 134 20 16 -2 41 -4 57 -4z m-1502 -487 c17 -109 31 -204 31 -210 0
-7 -11 -13 -25 -13 -33 0 -37 11 -65 195 -12 83 -24 152 -26 154 -1 2 -24 -5
-49 -15 -40 -15 -48 -15 -56 -3 -5 8 -9 20 -9 26 0 19 90 62 131 63 l36 0 32
-197z m281 179 c70 -35 99 -118 66 -195 -7 -18 -34 -59 -60 -90 l-46 -57 80 0
c77 0 81 -1 90 -26 6 -14 10 -27 10 -30 0 -2 -61 -4 -135 -4 l-135 0 0 24 c0
14 26 54 65 102 79 94 96 139 72 189 -21 44 -66 59 -117 38 -19 -8 -41 -17
-47 -20 -8 -3 -13 3 -13 16 0 12 -1 24 -2 29 -5 13 66 42 102 42 19 0 51 -8
70 -18z m484 -19 c2 -10 14 -71 26 -135 21 -113 23 -117 48 -120 21 -2 28 -9
30 -30 3 -24 0 -28 -21 -28 -21 0 -24 -4 -23 -42 1 -39 -1 -43 -26 -46 -25 -3
-27 0 -33 42 l-7 44 -93 7 c-70 6 -95 11 -100 23 -3 8 26 79 65 158 67 136 73
144 100 144 19 0 30 -6 34 -17z m324 -26 l3 -28 -73 2 c-63 2 -73 0 -72 -14 0
-9 1 -33 2 -52 2 -35 2 -35 47 -35 89 0 155 -59 155 -139 0 -92 -69 -136 -175
-112 -60 14 -69 21 -60 52 5 14 12 18 23 14 34 -14 100 -17 120 -6 49 26 35
103 -23 126 -19 8 -57 15 -84 15 -49 0 -50 1 -55 33 -3 17 -7 65 -9 105 l-3
73 101 -3 100 -3 3 -28z m-581 -73 c12 -19 14 -30 6 -43 -13 -20 -50 -26 -69
-11 -14 13 -19 61 -7 73 15 16 53 6 70 -19z m39 -229 c22 -34 10 -65 -25 -65
-15 0 -32 5 -39 12 -13 13 -16 60 -5 71 15 16 53 6 69 -18z m714 -800 c13 -16
6 -35 -15 -35 -18 0 -28 17 -21 35 7 19 20 19 36 0z m-1104 -27 c67 -62 64
-167 -6 -203 -19 -10 -49 -15 -78 -13 l-47 3 -11 75 c-6 41 -14 96 -18 123
l-7 47 66 0 c60 0 68 -3 101 -32z m94 17 c0 -21 -30 -31 -40 -14 -11 17 -3 29
21 29 10 0 19 -7 19 -15z m16 -152 c6 -71 4 -83 -9 -83 -9 0 -17 13 -20 33
-15 83 -19 128 -13 144 14 36 34 -11 42 -94z m50 96 c4 -8 9 -8 17 0 6 6 23
11 38 11 37 0 66 -39 74 -98 4 -26 9 -55 12 -65 6 -22 -26 -35 -38 -16 -5 8
-9 31 -9 51 0 72 -36 116 -68 85 -11 -12 -12 -27 -4 -77 7 -50 6 -63 -5 -67
-8 -3 -18 -2 -23 3 -15 15 -25 184 -12 184 6 0 14 -5 18 -11z m180 0 c4 -8 9
-8 17 0 19 19 62 12 86 -13 29 -31 44 -166 18 -166 -10 0 -17 13 -22 43 -12
84 -17 97 -36 108 -15 8 -24 7 -36 -2 -12 -11 -14 -26 -8 -81 5 -57 4 -68 -9
-68 -9 0 -17 12 -20 33 -3 17 -10 57 -15 87 -5 30 -7 58 -4 62 6 11 21 10 29
-3z m275 -19 c9 -14 20 -35 24 -47 6 -22 4 -23 -54 -23 -34 0 -61 -3 -61 -7 0
-21 37 -43 71 -43 40 0 61 -17 38 -31 -20 -12 -64 -11 -94 3 -54 25 -73 113
-33 155 30 32 84 28 109 -7z m67 18 c9 -9 12 -9 12 0 0 7 9 12 20 12 13 0 20
-7 20 -20 0 -11 -6 -20 -14 -20 -21 0 -26 -23 -17 -77 8 -56 5 -73 -15 -73
-14 0 -17 8 -33 109 -13 77 -4 100 27 69z m-718 -328 c0 -5 -6 -10 -14 -10 -8
0 -18 -6 -22 -12 -4 -7 -4 -10 1 -6 4 4 16 3 26 -3 13 -6 19 -6 19 1 0 5 7 10
16 10 10 0 14 -7 12 -17 -2 -10 -9 -17 -15 -16 -6 1 -9 -6 -6 -17 3 -13 14
-20 29 -20 13 0 27 0 31 -1 18 -2 13 23 -6 28 -24 6 -28 21 -6 29 22 9 18 24
-5 24 -11 0 -20 5 -20 10 0 13 57 13 65 0 5 -8 11 -7 20 0 8 6 26 10 42 8 23
-2 30 -10 37 -40 13 -50 -4 -88 -39 -88 -14 0 -28 7 -31 15 -5 12 -8 13 -20 0
-20 -19 -171 -15 -185 6 -14 23 -10 71 8 91 17 19 63 25 63 8z"/>
<path d="M4668 4553 c7 -3 16 -2 19 1 4 3 -2 6 -13 5 -11 0 -14 -3 -6 -6z"/>
<path d="M4012 4150 c0 -14 2 -19 5 -12 2 6 2 18 0 25 -3 6 -5 1 -5 -13z"/>
<path d="M3725 4111 c-3 -6 3 -9 14 -8 11 0 17 5 15 9 -7 11 -22 10 -29 -1z"/>
<path d="M3781 4034 c0 -11 3 -14 6 -6 3 7 2 16 -1 19 -3 4 -6 -2 -5 -13z"/>
<path d="M3672 4005 c0 -16 2 -22 5 -12 2 9 2 23 0 30 -3 6 -5 -1 -5 -18z"/>
<path d="M2660 3791 c0 -12 5 -21 10 -21 6 0 10 6 10 14 0 8 -4 18 -10 21 -5
3 -10 -3 -10 -14z"/>
<path d="M3160 3769 c0 -5 5 -7 10 -4 6 3 10 8 10 11 0 2 -4 4 -10 4 -5 0 -10
-5 -10 -11z"/>
<path d="M3050 3760 c0 -5 7 -7 15 -4 8 4 15 8 15 10 0 2 -7 4 -15 4 -8 0 -15
-4 -15 -10z"/>
<path d="M2950 3724 c0 -14 4 -23 9 -20 5 3 7 15 4 26 -7 28 -13 25 -13 -6z"/>
<path d="M2835 3680 c3 -5 8 -10 11 -10 2 0 4 5 4 10 0 6 -5 10 -11 10 -5 0
-7 -4 -4 -10z"/>
<path d="M2690 3535 c0 -8 2 -15 4 -15 2 0 6 7 10 15 3 8 1 15 -4 15 -6 0 -10
-7 -10 -15z"/>
<path d="M2802 3490 c0 -14 2 -19 5 -12 2 6 2 18 0 25 -3 6 -5 1 -5 -13z"/>
<path d="M2443 3470 c-11 -16 -10 -18 2 -14 8 4 15 12 15 20 0 19 -3 18 -17
-6z"/>
<path d="M2938 5159 c-21 -37 -38 -71 -38 -74 0 -3 24 -5 54 -5 l53 0 -12 70
c-7 39 -14 72 -16 74 -2 3 -21 -27 -41 -65z"/>
<path d="M2293 4143 c3 -21 9 -62 13 -90 6 -52 7 -53 41 -53 19 0 43 4 53 10
41 22 32 123 -13 155 -12 8 -39 15 -61 15 l-39 0 6 -37z"/>
<path d="M2952 4108 c-21 -21 -13 -28 30 -28 40 0 41 0 23 20 -21 23 -36 25
-53 8z"/>
<path d="M2530 3761 c0 -23 5 -41 10 -41 6 0 10 15 10 34 0 19 -4 38 -10 41
-6 4 -10 -10 -10 -34z"/>
<path d="M2337 3753 c-12 -11 -8 -31 7 -36 8 -3 17 0 20 8 5 15 -17 39 -27 28z"/>
</g>
</svg>
