<?xml version="1.0" standalone="no"?>
<!DOCTYPE svg PUBLIC "-//W3C//DTD SVG 20010904//EN"
 "http://www.w3.org/TR/2001/REC-SVG-20010904/DTD/svg10.dtd">
<svg version="1.0" xmlns="http://www.w3.org/2000/svg"
 width="600.000000pt" height="315.000000pt" viewBox="0 0 600.000000 315.000000"
 preserveAspectRatio="xMidYMid meet">

<g transform="translate(0.000000,315.000000) scale(0.100000,-0.100000)"
fill="#000000" stroke="none">
<path d="M778 2343 c-21 -8 -38 -18 -38 -22 0 -4 11 -18 24 -30 13 -13 35 -46
48 -74 20 -46 23 -67 22 -177 0 -134 -25 -262 -78 -403 -59 -156 -155 -316
-213 -354 -24 -16 -26 -16 -39 2 -18 24 -14 55 31 265 50 229 56 273 57 374 0
140 -28 214 -100 263 -105 70 -311 45 -410 -50 -88 -84 -106 -218 -40 -302 16
-21 85 -65 102 -65 2 0 4 33 4 73 1 146 75 274 171 293 42 9 69 -10 81 -57 15
-54 7 -127 -41 -379 -21 -113 -44 -250 -50 -306 -25 -220 32 -323 169 -310
185 17 369 246 492 612 77 232 89 414 35 532 -32 71 -50 90 -100 113 -48 22
-78 23 -127 2z"/>
<path d="M1938 2315 c-33 -19 -68 -90 -68 -141 0 -53 30 -99 74 -114 124 -41
230 145 138 243 -21 22 -34 27 -71 27 -25 -1 -58 -7 -73 -15z"/>
<path d="M3719 2310 c-20 -11 -49 -34 -64 -52 -32 -38 -98 -173 -114 -235
l-12 -43 -48 0 c-56 0 -81 -20 -81 -67 0 -35 13 -43 67 -43 31 0 35 -2 30 -22
-3 -13 -13 -66 -23 -118 -12 -73 -25 -110 -55 -160 -98 -167 -229 -284 -342
-305 -70 -13 -117 45 -117 143 l0 49 64 5 c74 6 160 42 221 92 47 39 100 131
110 192 14 91 -46 189 -130 213 -211 58 -404 -100 -463 -380 -21 -98 -52 -148
-146 -237 -82 -78 -138 -97 -196 -67 -85 44 -79 298 12 480 68 136 187 142
149 7 -24 -84 -24 -89 -2 -111 70 -70 186 49 166 170 -16 94 -87 144 -201 143
-94 0 -163 -33 -238 -114 -84 -91 -146 -238 -146 -346 0 -79 -113 -210 -164
-191 -24 10 -21 86 14 288 33 194 37 267 15 308 -33 66 -140 67 -268 3 l-79
-39 -15 24 c-32 48 -101 66 -153 40 -38 -19 -70 -74 -70 -119 0 -32 7 -47 34
-74 19 -19 41 -34 50 -34 22 0 21 -57 -3 -152 -56 -217 -192 -343 -265 -245
-19 25 -21 42 -21 145 1 83 6 134 19 176 28 93 77 186 124 235 23 25 42 50 42
57 0 22 -43 44 -85 44 -125 -1 -247 -142 -291 -336 -23 -107 -16 -269 16 -342
71 -164 256 -197 418 -74 87 66 179 262 209 444 l16 97 47 25 c26 14 60 26 75
26 24 0 26 -3 21 -27 -24 -116 -56 -365 -56 -443 0 -115 16 -156 73 -184 77
-37 180 7 266 115 l44 55 27 -50 c63 -123 210 -167 349 -105 57 25 122 79 170
139 l38 48 23 -55 c28 -69 62 -108 112 -134 57 -29 123 -34 198 -15 113 29
204 96 287 214 25 35 47 62 48 60 6 -6 -44 -325 -60 -391 -10 -37 -35 -102
-56 -144 -21 -42 -36 -80 -33 -85 9 -14 57 -9 99 11 139 63 198 233 255 726
12 105 27 221 33 259 l12 68 39 3 c44 2 76 32 76 70 0 20 -7 24 -50 30 -27 4
-50 8 -50 10 0 17 55 186 71 216 43 85 104 70 115 -27 3 -30 -3 -94 -16 -164
-42 -232 -90 -587 -90 -668 0 -93 14 -138 55 -170 77 -60 197 -20 292 99 l31
39 22 -46 c57 -116 209 -156 342 -88 116 59 216 215 260 408 l23 98 58 24 c51
20 57 21 53 6 -17 -56 -39 -233 -40 -327 -1 -100 1 -114 24 -154 83 -148 279
-94 399 109 l26 45 3 -30 c18 -183 142 -259 299 -184 23 11 73 53 110 93 108
116 217 344 257 540 20 95 20 135 0 186 -54 134 -254 89 -254 -58 0 -50 24
-108 52 -125 25 -16 23 -41 -13 -149 -63 -191 -177 -378 -230 -378 -61 0 -51
151 37 504 19 77 34 145 34 151 0 7 -13 18 -30 25 -39 16 -109 5 -150 -23 -29
-20 -35 -34 -65 -152 -72 -283 -193 -502 -271 -493 -43 5 -50 38 -36 161 6 57
29 185 51 285 22 100 38 188 35 197 -4 10 -20 15 -49 15 -32 0 -74 -16 -174
-65 -73 -36 -134 -65 -137 -65 -2 0 -4 6 -4 14 0 22 -46 72 -80 86 -24 10 -40
10 -70 1 -111 -33 -124 -178 -19 -221 31 -13 31 -14 25 -68 -17 -147 -97 -299
-177 -340 -89 -44 -133 5 -132 148 0 153 70 339 156 416 32 29 38 40 30 53
-17 28 -55 42 -98 35 -154 -24 -273 -211 -289 -452 -4 -65 -9 -79 -41 -120
-41 -55 -98 -97 -119 -89 -38 15 -32 114 30 492 39 236 46 357 25 418 -17 49
-67 106 -108 123 -48 20 -151 17 -194 -6z m-549 -460 c58 -58 -18 -223 -131
-280 -60 -31 -73 -27 -64 18 22 116 86 244 135 269 33 17 37 16 60 -7z"/>
</g>
</svg>
